<?xml version="1.0" encoding="UTF-8" standalone="no"?>
<svg
   width="16"
   height="16"
   fill="currentColor"
   class="bi bi-envelope-at"
   viewBox="0 0 16 16"
   version="1.1"
   id="svg29"
   sodipodi:docname="ahoj.svg"
   inkscape:version="1.2.2 (b0a8486541, 2022-12-01, custom)"
   xmlns:inkscape="http://www.inkscape.org/namespaces/inkscape"
   xmlns:sodipodi="http://sodipodi.sourceforge.net/DTD/sodipodi-0.dtd"
   xmlns="http://www.w3.org/2000/svg"
   xmlns:svg="http://www.w3.org/2000/svg">
  <defs
     id="defs33" />
  <sodipodi:namedview
     id="namedview31"
     pagecolor="#ffffff"
     bordercolor="#000000"
     borderopacity="0.25"
     inkscape:showpageshadow="2"
     inkscape:pageopacity="0.0"
     inkscape:pagecheckerboard="0"
     inkscape:deskcolor="#d1d1d1"
     showgrid="false"
     inkscape:zoom="35.929863"
     inkscape:cx="11.578113"
     inkscape:cy="7.3615643"
     inkscape:window-width="1858"
     inkscape:window-height="1016"
     inkscape:window-x="0"
     inkscape:window-y="0"
     inkscape:window-maximized="1"
     inkscape:current-layer="svg29" />
  <circle
     style="fill:#ffffff;stroke-width:2.38496"
     id="path245"
     cx="8.0192575"
     cy="8.028636"
     r="7.9739008"
     inkscape:export-filename="../ea0af1e8/tmp.jpg"
     inkscape:export-xdpi="9031.0205"
     inkscape:export-ydpi="9031.0205" />
  <g
     id="g301"
     transform="matrix(2.9301947,0,0,2.9301947,-14.463911,-13.228228)"
     style="fill:#a05a2c">
    <path
       d="M 6.5152104,5.9037515 A 0.38590538,0.38590538 0 0 0 6.129305,6.2896568 v 1.5455508 a 0.38590538,0.38590538 0 0 0 0.3859054,0.3839763 h 1.0612397 a 0.09647651,0.09647651 0 0 0 0,-0.192953 H 6.5152104 A 0.19295269,0.19295269 0 0 1 6.3288181,7.8832534 L 7.4170713,7.2135143 7.6729265,7.3669119 9.0235954,6.5565107 v 0.6014331 a 0.09647636,0.09647636 0 0 0 0.1929527,0 V 6.2896568 A 0.38590538,0.38590538 0 0 0 8.8306426,5.9037515 Z M 7.230679,7.101602 6.3222577,7.6605858 V 6.5565107 Z M 6.3222577,6.3315277 v -0.041873 a 0.19295269,0.19295269 0 0 1 0.1929527,-0.19295 h 2.3154322 a 0.19295269,0.19295269 0 0 1 0.1929528,0.1929521 v 0.041873 L 7.6729265,7.141931 Z"
       id="path25"
       style="fill:#a05a2c;stroke-width:0.192953" />
    <path
       d="m 8.878302,8.2710877 c 0.1948822,0 0.3062159,-0.1653602 0.3062159,-0.3907289 v -0.040516 c 0,-0.3094961 -0.2303856,-0.5854188 -0.6394452,-0.5854188 h -0.00676 c -0.3984472,0 -0.6724401,0.2624159 -0.6724401,0.6622136 v 0.041295 c 3e-6,0.4194728 0.277469,0.6471569 0.6479381,0.6471569 h 0.00849 c 0.1146138,0 0.1964258,-0.014277 0.2386824,-0.033767 V 8.4304674 c -0.047273,0.021226 -0.1298571,0.034731 -0.2276842,0.034731 h -0.00849 c -0.2573988,0 -0.4960814,-0.1520471 -0.4960814,-0.5122893 v -0.030296 c 0,-0.3197226 0.204144,-0.5256032 0.5093952,-0.5256032 h 0.00772 c 0.2961824,0 0.4792945,0.2026003 0.4792945,0.4488084 v 0.022768 c 0,0.1881287 -0.062517,0.2682038 -0.1232967,0.2682038 -0.044765,0 -0.079111,-0.028553 -0.079111,-0.08104 V 7.6331866 H 8.6479164 v 0.1097897 h -0.00579 c -0.01621,-0.057499 -0.071008,-0.1215596 -0.1840791,-0.1215596 -0.1501172,0 -0.2429274,0.1070887 -0.2429274,0.2701335 v 0.1018786 c 0,0.1721144 0.094547,0.2766948 0.2431204,0.2766948 0.090881,0 0.1728856,-0.043801 0.195654,-0.1240686 h 0.0083 c 0.022768,0.08104 0.1190518,0.1250327 0.2161077,0.1250327 z M 8.4049891,7.9646791 v -0.043801 c 0,-0.1053525 0.0438,-0.1526255 0.1105618,-0.1526255 0.057307,0 0.1103689,0.037045 0.1103689,0.1366105 v 0.070812 c 0,0.1105617 -0.048817,0.1435566 -0.1088252,0.1435566 -0.068305,0 -0.1121055,-0.041487 -0.1121055,-0.1543624 z"
       id="path27"
       style="fill:#a05a2c;stroke-width:0.192953" />
  </g>
</svg>
